<svg xmlns="http://www.w3.org/2000/svg" viewBox="0 0 5 6.2">
  <path d="M2.28 3.458c-.013-.028-.032-.053-.05-.078-.006-.012-.01-.024-.017-.035l-.018-.058c-.01-.024-.023-.052-.043-.07-.007-.02-.018-.037-.03-.053-.058-.072-.143-.107-.204-.174-.055-.062-.072-.157-.076-.236-.004-.09.006-.18.03-.266.005-.017-.022-.03-.028-.012-.07.162-.106.374-.01.532.016.025.033.045.055.064-.01 0-.01-.002-.02-.004-.06-.018-.13-.027-.19-.04-.02-.014-.04-.025-.06-.04s-.03-.03-.03-.05l-.04-.075c-.04-.094-.02-.202.01-.295 0-.018-.03-.024-.03-.006-.04.105-.07.21-.05.32 0 .032.01.064.03.094-.01-.005-.02-.01-.03-.017-.11-.07-.2-.17-.27-.27-.06-.09-.09-.18-.09-.27 0-.1.04-.2.06-.3 0-.02.01-.04.01-.06.03-.05.07-.11.13-.14l.01-.01c.03-.01.07-.01.11-.02.09 0 .18-.04.21-.13 0-.02-.02-.03-.03-.01-.01.03-.06.04-.09.05s-.09 0-.13-.01c-.02 0-.05-.01-.06-.02-.01-.01-.02-.01-.03-.02l-.01-.01-.02-.03V1.7s0-.004.002-.007c.02-.02.03-.04.05-.054l.01-.01c.02-.01.04-.03.05-.04.05-.03.1-.05.13-.08.01 0 .01 0 .01-.01.057-.03.1-.08.13-.13.02-.015 0-.036-.02-.02-.04.04-.09.08-.15.1-.06.014-.11.03-.17.056-.03.02-.06.04-.083.07l-.04-.1c.015-.02.03-.04.04-.06.025-.04.045-.08.07-.12.01-.013-.01-.03-.02-.016-.03.05-.065.09-.1.13-.03.03-.07.06-.08.1-.01.028-.04.39-.06.568-.016.01-.027.02-.04.04-.01.01-.02.01-.04 0-.024-.02-.04-.04-.05-.07 0-.01-.005-.01-.01-.02v-.02C.9 1.96.89 1.88.883 1.8c0-.02-.03-.02-.03 0 0 .096-.013.187 0 .28.014.08.046.15.1.2l.02.09c.01.07.01.14.03.2 0 .04.02.07.04.1s.05.06.08.08l.01.01.03.06H1.13c-.03-.01-.06-.01-.1-.01H.95C.94 2.8.93 2.8.92 2.79c-.04-.023-.077-.07-.1-.106-.03-.05-.06-.108-.08-.16-.01-.03-.047-.02-.04 0 .026.104.064.22.15.293-.004.01.015.02.03.02h.01c.01.01.03.01.05.02.05.02.1.05.16.07.05.02.1.03.16.03l.06.05.02.01c.056.05.12.082.2.1.062.01.13 0 .19.01.05.01.095.026.14.05.07.045.125.11.175.18.01.02.02.044.027.067.005.023.01.04.006.06 0 .08.006.2.11.206.05.004.087-.033.104-.076.02-.056.01-.11-.02-.16zm-.113.136c-.005-.01-.006-.024-.007-.036.003.01.006.022.006.033v.01zm.538.024c.018.042.056.08.105.077.103-.006.105-.126.104-.204 0-.02.004-.03.01-.06l.027-.06c.05-.07.11-.13.18-.18.04-.02.09-.04.14-.05.06-.01.13 0 .19-.01.08-.01.14-.05.2-.09l.02-.01c.03-.01.05-.03.07-.04.06 0 .12-.01.16-.03.06-.02.11-.04.17-.07.02 0 .04-.01.05-.02h.01c.02 0 .04-.01.03-.02.09-.07.13-.19.15-.3.01-.02-.02-.03-.03-.01-.02.06-.05.11-.09.16-.03.04-.06.09-.1.11l-.04.01c-.02.01-.05.01-.08.01s-.07 0-.1.01h-.04l.03-.054.02-.01c.03-.023.06-.05.09-.08.02-.026.03-.06.04-.09.02-.06.02-.13.03-.2 0-.03.01-.05.02-.08.05-.05.09-.11.1-.19.02-.09 0-.18 0-.27 0-.02-.03-.02-.03 0-.01.08-.01.155-.03.23l-.01.03c0 .004-.01.01-.01.016-.01.03-.03.05-.05.07h-.01c-.02.01-.03.01-.04-.007-.01-.015-.02-.03-.04-.04-.02-.18-.05-.54-.06-.57-.01-.04-.05-.07-.08-.1-.04-.04-.07-.083-.1-.125-.01-.02-.03 0-.02.014.03.04.046.08.07.12.01.02.03.04.04.06l-.034.1c-.03-.024-.06-.05-.09-.064-.06-.026-.114-.04-.17-.06-.06-.016-.11-.056-.15-.097-.02-.02-.04 0-.02.02.03.05.08.09.13.12v.01c.04.035.086.055.13.08l.05.03.006.01c.02.02.035.04.05.06v.024c-.005.016-.01.02-.02.03l-.02.02-.02.015-.053.01c-.034 0-.09.01-.13 0-.03-.01-.074-.02-.09-.06-.003-.02-.03-.01-.023.005.03.09.12.13.21.127.034.01.07.015.11.02 0 0 .01.007.01.01.06.03.098.09.13.14l.02.06c.02.094.06.19.06.29 0 .1-.034.19-.09.27-.07.106-.164.2-.27.27H3.47l.03-.095c.02-.11-.015-.216-.05-.32-.01-.02-.035-.013-.03.006.03.09.046.2.01.3l-.03.08c-.01.02-.02.04-.03.05-.02.02-.04.03-.058.04-.06.02-.123.03-.184.04l-.02.01c.02-.02.04-.04.052-.06.094-.16.06-.37-.01-.53-.01-.02-.035-.01-.03.01.023.08.035.17.03.26-.005.08-.02.18-.077.24-.06.07-.144.1-.2.18-.013.018-.023.036-.03.05-.022.02-.034.05-.044.07l-.02.06-.02.038c-.02.02-.04.05-.05.077-.03.05-.04.108-.02.16zm.13-.027c0-.01.003-.02.007-.03-.002.01-.004.03-.008.04v-.01z" />
</svg>
